<svg xmlns="http://www.w3.org/2000/svg" viewBox="0 0 24 24" fill="none">
  <path
    fill="currentColor"
    d="M5.5 4.25a2.25 2.25 0 0 1 2.25-2.25h10.5a2.25 2.25 0 0 1 2.25 2.25v3.5a2.25 2.25 0 0 1-2.25 2.25h-5.84l3.88 4.84a1 1 0 0 1 .2.63v4.29a2.25 2.25 0 0 1-2.25 2.25H5.75A2.25 2.25 0 0 1 3.5 19.75v-3.5A2.25 2.25 0 0 1 5.75 14h5.84L7.7 9.16a1 1 0 0 1-.2-.63V4.25Zm2.25-.25a.25.25 0 0 0-.25.25v3.18L12.9 14H5.75a.25.25 0 0 0-.25.25v3.5c0 .14.11.25.25.25h8.5a.25.25 0 0 0 .25-.25v-3.18L9.1 8h9.15c.14 0 .25-.11.25-.25v-3.5a.25.25 0 0 0-.25-.25H7.75Z" />
</svg>
